<?xml version="1.0" encoding="iso-8859-1"?>
<!-- Generator: Adobe Illustrator 18.0.0, SVG Export Plug-In . SVG Version: 6.00 Build 0)  -->
<!DOCTYPE svg PUBLIC "-//W3C//DTD SVG 1.1//EN" "http://www.w3.org/Graphics/SVG/1.1/DTD/svg11.dtd">
<svg version="1.1" id="Capa_1" xmlns="http://www.w3.org/2000/svg" xmlns:xlink="http://www.w3.org/1999/xlink" x="0px" y="0px"
	 viewBox="0 0 490 490" style="enable-background:new 0 0 490 490;" xml:space="preserve">
<g>
	<path d="M453.271,179.81L293.586,20.125C280.608,7.147,263.354,0,245,0s-35.608,7.147-48.586,20.125L36.729,179.81
		c-12.919,12.919-16.602,31.431-9.609,48.311c5.227,12.619,15.314,21.663,27.718,25.426v167.742
		c0,37.888,30.824,68.712,68.712,68.712h242.925c37.888,0,68.712-30.824,68.712-68.712V253.542
		c12.387-3.765,22.471-12.809,27.695-25.422C469.873,211.241,466.19,192.729,453.271,179.81z M435.165,216.64
		c-0.86,2.075-4.355,8.846-13.239,8.846c-9.23,0-16.74,7.51-16.74,16.74v179.062c0,21.346-17.366,38.712-38.712,38.712H123.549
		c-21.346,0-38.712-17.366-38.712-38.712V242.226c0-9.23-7.51-16.74-16.763-16.74c-8.884,0-12.379-6.771-13.239-8.846
		c-0.859-2.075-3.176-9.334,3.106-15.617L217.627,41.338C224.938,34.027,234.66,30,245,30s20.062,4.027,27.373,11.338
		l159.686,159.685C438.341,207.306,436.024,214.565,435.165,216.64z"/>
	<path d="M372.657,212.73c-3.951-7.281-13.056-9.981-20.338-6.03l-15.047,8.166c1.665-6.294-0.92-13.181-6.785-16.695
		c-7.106-4.258-16.319-1.948-20.576,5.156l-23.431,39.101l-20.645,11.203v-23.488l23.191-39.245
		c4.214-7.132,1.85-16.331-5.283-20.545c-5.885-3.478-13.17-2.465-17.908,1.999v-17.119c0-8.284-6.716-15-15-15s-15,6.716-15,15
		v17.12c-4.738-4.465-12.022-5.478-17.91-2c-7.132,4.215-9.496,13.413-5.282,20.545l23.192,39.245v23.488l-20.646-11.204
		l-23.431-39.101c-4.258-7.105-13.469-9.416-20.576-5.156c-5.865,3.514-8.45,10.4-6.785,16.695L149.35,206.7
		c-7.28-3.949-16.388-1.252-20.338,6.03c-3.951,7.281-1.252,16.387,6.029,20.338l15.047,8.165
		c-6.184,2.035-10.549,7.955-10.299,14.787c0.296,8.092,6.949,14.452,14.98,14.452c0.185,0,0.372-0.003,0.559-0.01l45.552-1.667
		l18.504,10.042l-18.504,10.041l-45.554-1.667c-8.277-0.312-15.235,6.163-15.538,14.442c-0.25,6.832,4.115,12.752,10.299,14.787
		l-15.047,8.166c-7.281,3.951-9.98,13.057-6.029,20.338c2.717,5.008,7.873,7.849,13.197,7.849c2.416,0,4.867-0.585,7.141-1.819
		l15.047-8.165c-1.664,6.294,0.921,13.18,6.785,16.694c2.414,1.447,5.072,2.136,7.695,2.136c5.099,0,10.07-2.601,12.882-7.292
		l23.431-39.101l20.645-11.203v23.489l-23.191,39.243c-4.215,7.132-1.851,16.33,5.281,20.545c5.885,3.478,13.172,2.466,17.91-2
		v17.121c0,8.284,6.716,15,15,15s15-6.716,15-15v-17.11c2.809,2.645,6.512,4.079,10.292,4.078c2.593,0,5.222-0.674,7.616-2.089
		c7.133-4.214,9.497-13.413,5.283-20.545l-23.191-39.245v-23.488l20.645,11.203l23.43,39.101c2.813,4.692,7.782,7.292,12.882,7.292
		c2.623,0,5.281-0.689,7.695-2.136c5.865-3.514,8.45-10.4,6.785-16.694l15.047,8.165c2.273,1.233,4.724,1.819,7.141,1.819
		c5.323,0,10.48-2.841,13.197-7.849c3.951-7.281,1.252-16.387-6.029-20.338l-15.047-8.165c6.185-2.035,10.549-7.956,10.3-14.788
		c-0.303-8.278-7.231-14.716-15.538-14.442l-45.554,1.667l-18.503-10.041l18.504-10.042l45.553,1.667
		c0.188,0.007,0.373,0.01,0.559,0.01c8.031,0,14.685-6.36,14.98-14.452c0.25-6.832-4.115-12.753-10.3-14.788l15.047-8.165
		C373.909,229.117,376.608,220.011,372.657,212.73z"/>
</g>
<g>
</g>
<g>
</g>
<g>
</g>
<g>
</g>
<g>
</g>
<g>
</g>
<g>
</g>
<g>
</g>
<g>
</g>
<g>
</g>
<g>
</g>
<g>
</g>
<g>
</g>
<g>
</g>
<g>
</g>
</svg>
