<?xml version="1.0" encoding="iso-8859-1"?>
<!-- Generator: Adobe Illustrator 18.0.0, SVG Export Plug-In . SVG Version: 6.00 Build 0)  -->
<!DOCTYPE svg PUBLIC "-//W3C//DTD SVG 1.1//EN" "http://www.w3.org/Graphics/SVG/1.1/DTD/svg11.dtd">
<svg version="1.1" id="Capa_1" xmlns="http://www.w3.org/2000/svg" xmlns:xlink="http://www.w3.org/1999/xlink" x="0px" y="0px"
	 viewBox="0 0 489.444 489.444" style="enable-background:new 0 0 489.444 489.444;" xml:space="preserve">
<g>
	<path d="M452.768,179.578L293.265,20.074c-26.768-26.766-70.32-26.766-97.086,0L36.676,179.578
		c-12.909,12.909-16.589,31.407-9.603,48.274c5.221,12.605,15.297,21.642,27.685,25.404v167.538
		c0,37.854,30.797,68.651,68.65,68.651h242.648c37.854,0,68.651-30.796,68.651-68.651V253.251
		c12.372-3.765,22.443-12.8,27.662-25.399C469.357,210.984,465.677,192.487,452.768,179.578z M434.655,216.371
		c-0.858,2.07-4.345,8.826-13.209,8.826c-9.229,0-16.737,7.509-16.737,16.738v178.858c0,21.312-17.339,38.651-38.651,38.651H123.409
		c-21.312,0-38.65-17.339-38.65-38.651V241.935c0-9.229-7.509-16.738-16.76-16.738c-8.864,0-12.351-6.755-13.209-8.826
		c-0.857-2.07-3.168-9.313,3.1-15.58L217.392,41.288c7.536-7.536,17.432-11.302,27.33-11.302c9.896,0,19.796,3.768,27.33,11.302
		l159.503,159.504C437.823,207.059,435.512,214.301,434.655,216.371z"/>
	<path d="M305.492,151.099c0-33.509-27.262-60.771-60.771-60.771s-60.771,27.262-60.771,60.771v149.841
		c-12.473,14.497-19.271,32.762-19.271,52.101c0,21.603,8.475,41.851,23.864,57.015c15.098,14.877,34.999,23.027,56.162,23.026
		c0.404,0,0.811-0.003,1.216-0.009c20.597-0.303,40.092-8.497,54.895-23.071c14.807-14.578,23.298-33.946,23.909-54.535
		c0.593-19.94-6.358-39.463-19.234-54.513V151.099z M294.741,354.577c-0.783,26.354-22.881,48.111-49.259,48.5
		c-13.513,0.198-26.262-4.911-35.881-14.389c-9.621-9.481-14.92-22.14-14.92-35.646c0-13.456,5.266-26.083,14.827-35.554
		c2.844-2.817,4.443-6.654,4.443-10.657V151.099c0-16.967,13.804-30.771,30.771-30.771s30.771,13.804,30.771,30.771v155.732
		c0,4.003,1.6,7.84,4.444,10.657C289.901,327.358,295.158,340.529,294.741,354.577z"/>
	<path d="M259.722,335.925V154.329c0-8.284-6.716-15-15-15s-15,6.716-15,15v181.597c-4.757,4.172-7.765,10.291-7.765,17.116
		c0,12.573,10.192,22.765,22.765,22.765s22.765-10.192,22.765-22.765C267.487,346.216,264.479,340.098,259.722,335.925z"/>
</g>
<g>
</g>
<g>
</g>
<g>
</g>
<g>
</g>
<g>
</g>
<g>
</g>
<g>
</g>
<g>
</g>
<g>
</g>
<g>
</g>
<g>
</g>
<g>
</g>
<g>
</g>
<g>
</g>
<g>
</g>
</svg>
