<svg width="800" height="800" xmlns="http://www.w3.org/2000/svg">

 <g>
  <title>background</title>
  <rect fill="none" id="canvas_background" height="402" width="582" y="-1" x="-1"/>
 </g>
 <g>
  <title>Layer 1</title>
  <path fill="#0075b2" id="svg_2" d="m154.7,757.3l480,0c65.1,0 117.3,-52.3 117.3,-117.3l0,-480c0,-65.1 -52.3,-117.3 -117.3,-117.3l-480,0c-65.1,0 -117.4,52.2 -117.4,117.3l0,480c0,65.1 52.3,117.3 117.4,117.3zm-53.4,-597.3c0,-29.9 23.5,-53.3 53.3,-53.3l480,0c29.9,0 53.3,23.5 53.3,53.3l0,480c0,29.9 -23.5,53.3 -53.3,53.3l-480,0c-29.9,0 -53.3,-23.5 -53.3,-53.3l0,-480z"/>
  <path fill="#0057b2" id="svg_3" d="m269.9,592c5.3,3.2 11.7,5.3 17.1,5.3l215.5,0c6.4,0 12.8,-2.1 17.1,-5.3c64.9,-42.7 104.4,-114.1 104.4,-192s-39.5,-149.3 -104.5,-192c-5.3,-3.2 -11.7,-5.3 -17.1,-5.3l-215.5,0c-6.4,0 -12.8,2.1 -17.1,5.3c-65.1,42.7 -104.5,114.1 -104.5,192s39.5,149.3 104.6,192zm27.7,-325.3l195.2,0c42.7,30.9 68.3,80 68.3,133.3s-25.6,102.4 -68.3,133.3l-195.2,0c-42.7,-30.9 -68.3,-80 -68.3,-133.3s25.6,-102.4 68.3,-133.3z"/>
  <path fill="#0057b2" id="svg_4" d="m325.3,416c18.1,0 32,-13.9 32,-32l0,-53.3c0,-18.1 -13.9,-32 -32,-32s-32,13.9 -32,32l0,53.3c0,17.1 15,32 32,32z"/>
  <path fill="#0057b2" id="svg_5" d="m464,416c18.1,0 32,-13.9 32,-32l0,-53.3c0,-18.1 -13.9,-32 -32,-32c-18.1,0 -32,13.9 -32,32l0,53.3c0,17.1 14.9,32 32,32z"/>
  <path fill="#0057b2" id="svg_6" d="m357.3,501.3l74.7,0l0,-37.3c0,-20.3 -17.1,-37.3 -37.3,-37.3c-20.3,0 -37.3,17.1 -37.3,37.3l0,37.3l-0.1,0z"/>
 </g>
</svg>