<?xml version="1.0" encoding="iso-8859-1"?>
<!-- Generator: Adobe Illustrator 21.0.0, SVG Export Plug-In . SVG Version: 6.00 Build 0)  -->
<svg xmlns="http://www.w3.org/2000/svg" xmlns:xlink="http://www.w3.org/1999/xlink" version="1.1" id="Capa_1" x="0px" y="0px" viewBox="0 0 512 512" style="enable-background:new 0 0 512 512;" xml:space="preserve" width="512" height="512">
<g>
	<path d="M463.621,139.379c-5.857-5.858-15.355-5.857-21.213,0c-5.858,5.858-5.858,15.355,0,21.213   C467.939,186.124,482,220.007,482,256s-14.061,69.876-39.592,95.408c-5.858,5.858-5.858,15.355,0,21.213   c5.857,5.857,15.355,5.858,21.213,0C494.818,341.422,512,300.006,512,256S494.818,170.577,463.621,139.379z"/>
	<path d="M421.218,181.783c-5.857-5.858-15.355-5.857-21.213,0c-5.858,5.858-5.858,15.355,0,21.213   C414.188,217.18,422,236.004,422,256s-7.812,38.82-21.995,53.004c-5.858,5.858-5.858,15.355,0,21.213   c5.857,5.857,15.355,5.858,21.213,0C441.068,310.367,452,284.009,452,256S441.068,201.633,421.218,181.783z"/>
	<path d="M361,213.58V15c0-8.284-6.716-15-15-15H15C6.716,0,0,6.716,0,15v482c0,8.284,6.716,15,15,15h331c8.284,0,15-6.716,15-15   V298.42c17.459-6.192,30-22.865,30-42.42S378.459,219.772,361,213.58z M30,482V30h301v183.58c-17.459,6.192-30,22.865-30,42.42   s12.541,36.228,30,42.42V482H30z M346,271c-8.271,0-15-6.729-15-15s6.729-15,15-15s15,6.729,15,15S354.271,271,346,271z"/>
	<path d="M151,241h60c49.626,0,90-40.374,90-90s-40.374-90-90-90h-60c-49.626,0-90,40.374-90,90S101.374,241,151,241z M151,91h60   c33.084,0,60,26.916,60,60s-26.916,60-60,60h-60c-33.084,0-60-26.916-60-60S117.916,91,151,91z"/>
	<path d="M211,271h-60c-49.626,0-90,40.374-90,90s40.374,90,90,90h60c49.626,0,90-40.374,90-90S260.626,271,211,271z M211,421h-60   c-33.084,0-60-26.916-60-60s26.916-60,60-60h60c33.084,0,60,26.916,60,60S244.084,421,211,421z"/>
	<path d="M136,181c8.284,0,15-6.716,15-15v-30c0-8.284-6.716-15-15-15s-15,6.716-15,15v30C121,174.284,127.716,181,136,181z"/>
	<path d="M226,181c8.284,0,15-6.716,15-15v-30c0-8.284-6.716-15-15-15s-15,6.716-15,15v30C211,174.284,217.716,181,226,181z"/>
	<path d="M136,331c-8.284,0-15,6.716-15,15v30c0,8.284,6.716,15,15,15s15-6.716,15-15v-30C151,337.716,144.284,331,136,331z"/>
	<path d="M226,331c-8.284,0-15,6.716-15,15v30c0,8.284,6.716,15,15,15s15-6.716,15-15v-30C241,337.716,234.284,331,226,331z"/>
</g>















</svg>
