<?xml version="1.0"?>
<svg xmlns="http://www.w3.org/2000/svg" viewBox="0 0 64 64" width="512px" height="512px" class=""><g><g id="Smart_plug" data-name="Smart plug"><path d="M34,37a1,1,0,0,0-1-1H26a1,1,0,0,0,0,2h7A1,1,0,0,0,34,37Z" data-original="#000000" class="active-path" data-old_color="#000000" fill="#0075B2"/><path d="M26,34h7a1,1,0,0,0,0-2H26a1,1,0,0,0,0,2Z" data-original="#000000" class="active-path" data-old_color="#000000" fill="#0075B2"/><path d="M51,12h2.719L52.03,18.757a1,1,0,0,0,1.677.95l8-8A1,1,0,0,0,61,10H59.133l.859-6.876a1,1,0,0,0-1.7-.831l-8,8A1,1,0,0,0,51,12Zm6.646-6.232-.638,5.108A1,1,0,0,0,58,12h.586l-3.74,3.74,1.124-4.5A1,1,0,0,0,55,10H53.414Z" data-original="#000000" class="active-path" data-old_color="#000000" fill="#0075B2"/><path d="M13,52H11.133l.859-6.876a1,1,0,0,0-1.7-.831l-8,8A1,1,0,0,0,3,54H5.719L4.03,60.757a1,1,0,0,0,1.677.95l8-8A1,1,0,0,0,13,52ZM6.846,57.74l1.124-4.5A1,1,0,0,0,7,52H5.414l4.232-4.232-.638,5.108A1,1,0,0,0,10,54h.586Z" data-original="#000000" class="active-path" data-old_color="#000000" fill="#0075B2"/><path d="M3,7H5V9A1,1,0,0,0,7,9V7H9A1,1,0,0,0,9,5H7V3A1,1,0,0,0,5,3V5H3A1,1,0,0,0,3,7Z" data-original="#000000" class="active-path" data-old_color="#000000" fill="#0075B2"/><path d="M17.333,15.6c-.249.222-.491.45-.729.683A1,1,0,1,0,18,17.714q.327-.318.665-.622a1,1,0,1,0-1.334-1.49Z" data-original="#000000" class="active-path" data-old_color="#000000" fill="#0075B2"/><path d="M54,32a1,1,0,0,0-2,0A19.872,19.872,0,0,1,35,51.75V45.816A3,3,0,0,0,37,43V41.92A7,7,0,0,0,43,35V23.816A2.993,2.993,0,0,0,42,18H41V9a3,3,0,0,0-6,0v9H29V9a3,3,0,0,0-6,0v9H22a2.993,2.993,0,0,0-1,5.816V35a7,7,0,0,0,6,6.92V43a3,3,0,0,0,2,2.816V51.75A19.981,19.981,0,0,1,15.808,20.259a1,1,0,0,0-1.616-1.178A21.978,21.978,0,0,0,29,53.767V61a1,1,0,0,0,2,0V46h2V61a1,1,0,0,0,2,0V53.767A21.861,21.861,0,0,0,54,32ZM37,9a1,1,0,0,1,2,0v9H37ZM25,9a1,1,0,0,1,2,0v9H25ZM22,20H42a1,1,0,0,1,0,2H22a1,1,0,0,1,0-2Zm1,15V24H41V35a5.006,5.006,0,0,1-5,5H28A5.006,5.006,0,0,1,23,35Zm7,9a1,1,0,0,1-1-1V42h6v1a1,1,0,0,1-1,1Z" data-original="#000000" class="active-path" data-old_color="#000000" fill="#0075B2"/><path d="M52.163,26.029a1,1,0,0,0-.733,1.209c.077.314.146.632.208.951a1,1,0,0,0,.981.811,1.035,1.035,0,0,0,.19-.018,1,1,0,0,0,.793-1.171q-.1-.53-.23-1.049A1,1,0,0,0,52.163,26.029Z" data-original="#000000" class="active-path" data-old_color="#000000" fill="#0075B2"/><path d="M38.759,59.179q-.479.118-.964.221a1,1,0,0,0,.2,1.978.967.967,0,0,0,.206-.021q.52-.109,1.036-.237a1,1,0,1,0-.482-1.941Z" data-original="#000000" class="active-path" data-old_color="#000000" fill="#0075B2"/><path d="M61,31a1,1,0,0,0-1,1A27.851,27.851,0,0,1,42.238,58.07,1,1,0,0,0,42.6,60a.978.978,0,0,0,.365-.07A29.84,29.84,0,0,0,62,32,1,1,0,0,0,61,31Z" data-original="#000000" class="active-path" data-old_color="#000000" fill="#0075B2"/><path d="M30,4.068l.068,0c.321-.021.643-.038.967-.048A1,1,0,0,0,32,2.983a.979.979,0,0,0-1.034-.965c-.346.011-.69.029-1.033.052a1,1,0,0,0,.066,2Z" data-original="#000000" class="active-path" data-old_color="#000000" fill="#0075B2"/><path d="M3,33a1,1,0,0,0,1-1A28.111,28.111,0,0,1,26.206,4.6a1,1,0,1,0-.412-1.957A30.119,30.119,0,0,0,2,32,1,1,0,0,0,3,33Z" data-original="#000000" class="active-path" data-old_color="#000000" fill="#0075B2"/><path d="M61,57H59V55a1,1,0,0,0-2,0v2H55a1,1,0,0,0,0,2h2v2a1,1,0,0,0,2,0V59h2a1,1,0,0,0,0-2Z" data-original="#000000" class="active-path" data-old_color="#000000" fill="#0075B2"/><path d="M37,34h1a1,1,0,0,0,0-2H37a1,1,0,0,0,0,2Z" data-original="#000000" class="active-path" data-old_color="#000000" fill="#0075B2"/><path d="M37,38h1a1,1,0,0,0,0-2H37a1,1,0,0,0,0,2Z" data-original="#000000" class="active-path" data-old_color="#000000" fill="#0075B2"/></g></g> </svg>
